<?xml version="1.0" encoding="UTF-8"?> <svg xmlns="http://www.w3.org/2000/svg" width="172" height="86" viewBox="0 0 172 86" fill="none"> <path d="M76.7798 80.0096L48.7798 63.4096L168.18 63.1096V67.1096L63.3798 67.3096L78.8798 76.5096L76.7798 80.0096Z" fill="white"></path> <path d="M121.98 24.1097L2.97998 24.0097V20.0097L111.28 20.1097L98.98 9.40967L101.58 6.40967L121.98 24.1097Z" fill="white"></path> <path d="M7.97969 51.2096V56.8096H3.17969V40.8096H7.97969V42.0096C8.97969 40.9096 10.2797 40.5096 11.5797 40.5096C14.7797 40.5096 17.1797 42.6096 17.1797 46.6096C17.1797 50.6096 14.7797 52.7096 11.5797 52.7096C10.2797 52.7096 8.97969 52.3096 7.97969 51.2096ZM12.2797 46.6096C12.2797 45.2096 11.1797 44.3096 9.87969 44.3096C9.27969 44.3096 8.37969 44.6096 7.87969 45.1096V48.1096C8.27969 48.6096 9.17969 48.9096 9.87969 48.9096C11.1797 48.9096 12.2797 48.0096 12.2797 46.6096Z" fill="white"></path> <path d="M26.28 52.4096V51.3096C25.58 52.1096 23.98 52.7096 22.38 52.7096C20.48 52.7096 17.98 51.5096 17.98 48.9096C17.98 46.0096 20.48 45.2096 22.38 45.2096C24.08 45.2096 25.58 45.7096 26.28 46.5096V45.3096C26.28 44.5096 25.48 43.9096 23.88 43.9096C22.68 43.9096 21.38 44.3096 20.38 45.0096L18.78 42.3096C20.48 41.1096 22.88 40.5096 24.78 40.5096C27.98 40.5096 31.08 41.5096 31.08 45.4096V52.4096H26.28ZM26.28 49.2096V48.6096C25.98 48.2096 25.18 48.0096 24.38 48.0096C23.58 48.0096 22.68 48.2096 22.68 49.0096C22.68 49.7096 23.58 49.9096 24.38 49.9096C25.18 49.9096 25.98 49.6096 26.28 49.2096Z" fill="white"></path> <path d="M34.2801 53.1096C34.5801 53.2096 34.9801 53.3096 35.2801 53.3096C36.1801 53.3096 36.7801 53.2096 36.9801 52.8096L37.0801 52.6096L32.0801 40.8096H37.0801L39.4801 47.4096L41.9801 40.8096H46.9801L41.3801 53.8096C40.2801 56.5096 38.0801 57.0096 35.4801 57.1096C35.1801 57.1096 34.0801 57.0096 33.6801 56.9096L34.2801 53.1096Z" fill="white"></path> <path d="M47.98 52.4097V36.4097H53.28V48.2097H59.98V52.4097H47.98Z" fill="white"></path> <path d="M60.6797 44.4096C60.6797 39.5096 64.8797 36.1096 70.2797 36.1096C75.6797 36.1096 79.8797 39.5096 79.8797 44.4096C79.8797 49.3096 75.6797 52.7096 70.2797 52.7096C64.8797 52.7096 60.6797 49.3096 60.6797 44.4096ZM74.4797 44.4096C74.4797 42.2096 72.7797 40.4096 70.2797 40.4096C67.7797 40.4096 66.0797 42.2096 66.0797 44.4096C66.0797 46.6096 67.7797 48.4096 70.2797 48.4096C72.7797 48.4096 74.4797 46.6096 74.4797 44.4096Z" fill="white"></path> <path d="M80.8799 44.4096C80.8799 39.5096 85.0799 36.1096 90.5799 36.1096C95.1799 36.1096 97.5799 38.5096 98.5799 40.8096L93.9799 42.7096C93.5799 41.5096 92.1799 40.4096 90.5799 40.4096C87.9799 40.4096 86.2799 42.2096 86.2799 44.4096C86.2799 46.6096 87.9799 48.4096 90.5799 48.4096C92.1799 48.4096 93.5799 47.3096 93.9799 46.1096L98.5799 48.0096C97.5799 50.1096 95.1799 52.7096 90.5799 52.7096C85.0799 52.7096 80.8799 49.3096 80.8799 44.4096Z" fill="white"></path> <path d="M111.78 52.4097L111.18 50.5097H104.88L104.28 52.4097H98.1797L104.68 36.4097H111.38L117.88 52.4097H111.78ZM107.98 41.1097L106.28 46.3097H109.78L107.98 41.1097Z" fill="white"></path> <path d="M120.98 52.4097V40.6097H116.28V36.4097H131.08V40.6097H126.38V52.4097H120.98Z" fill="white"></path> <path d="M131.48 44.4096C131.48 39.5096 135.68 36.1096 141.08 36.1096C146.48 36.1096 150.68 39.5096 150.68 44.4096C150.68 49.3096 146.48 52.7096 141.08 52.7096C135.68 52.7096 131.48 49.3096 131.48 44.4096ZM145.28 44.4096C145.28 42.2096 143.58 40.4096 141.08 40.4096C138.58 40.4096 136.88 42.2096 136.88 44.4096C136.88 46.6096 138.58 48.4096 141.08 48.4096C143.58 48.4096 145.28 46.6096 145.28 44.4096Z" fill="white"></path> <path d="M162.38 52.4097L159.98 47.4097H158.08V52.4097H152.78V36.4097H162.18C166.28 36.4097 168.48 38.9097 168.48 41.9097C168.48 44.7097 166.68 46.1097 165.28 46.7097L168.48 52.4097H162.38ZM162.98 41.8097C162.98 40.9097 162.18 40.6097 161.28 40.6097H157.98V43.1097H161.28C162.08 43.1097 162.98 42.7097 162.98 41.8097Z" fill="white"></path> </svg> 